<?xml version="1.0" encoding="UTF-8"?>
<!DOCTYPE svg PUBLIC "-//W3C//DTD SVG 1.1//EN" "http://www.w3.org/Graphics/SVG/1.1/DTD/svg11.dtd">
<!-- Creator: CorelDRAW -->
<svg xmlns="http://www.w3.org/2000/svg" xml:space="preserve" width="20mm" height="20mm" version="1.1" style="shape-rendering:geometricPrecision; text-rendering:geometricPrecision; image-rendering:optimizeQuality; fill-rule:evenodd; clip-rule:evenodd"
viewBox="0 0 2000 2000"
 xmlns:xlink="http://www.w3.org/1999/xlink"
 xmlns:xodm="http://www.corel.com/coreldraw/odm/2003">
 <defs>
  <style type="text/css">
   <![CDATA[
    .fil0 {fill:#F7E8CF}
    .fil1 {fill:#EA580C;fill-rule:nonzero}
   ]]>
  </style>
 </defs>
 <g id="Слой_x0020_1">
  <metadata id="CorelCorpID_0Corel-Layer"/>
  <path class="fil0" d="M497.76 7.53l989.42 0c279.02,0 505.29,226.27 505.29,505.29l0 989.42c0,279.01 -226.27,505.28 -505.29,505.28l-989.42 0.01c-279.01,-0.01 -505.28,-226.28 -505.28,-505.3l-0.01 -989.41c0.01,-279.02 226.28,-505.29 505.3,-505.29z"/>
  <path class="fil1" d="M626.26 1289.92l732.43 0c5.79,0 10.99,-2.29 14.67,-5.98l0.17 -0.17c3.69,-3.68 5.98,-8.88 5.98,-14.67l0 -327.07 -774.07 0 0 327.07c0,5.79 2.29,10.99 5.98,14.67l0.17 0.17c3.68,3.69 8.88,5.98 14.67,5.98zm753.25 -433.83l0 -110.15c0,-5.79 -2.29,-10.99 -5.98,-14.67l-0.17 -0.17c-3.68,-3.69 -8.88,-5.98 -14.67,-5.98l-732.43 0c-5.79,0 -10.99,2.29 -14.67,5.98l-0.17 0.17c-3.69,3.68 -5.98,8.88 -5.98,14.67l0 110.15 774.07 0zm-20.82 519.77l-732.43 0c-29.21,0 -55.85,-11.99 -75.26,-31.33l-0.17 -0.17c-19.34,-19.41 -31.33,-46.05 -31.33,-75.26l0 -523.16c0,-29.21 11.99,-55.85 31.33,-75.26l0.17 -0.17c19.41,-19.34 46.05,-31.33 75.26,-31.33l732.43 0c29.21,0 55.85,11.99 75.26,31.33l0.17 0.17c19.34,19.41 31.33,46.05 31.33,75.26l0 523.16c0,29.21 -11.99,55.85 -31.33,75.26l-0.17 0.17c-19.41,19.34 -46.05,31.33 -75.26,31.33z"/>
 </g>
</svg>
