<?xml version="1.0" encoding="UTF-8"?>
<!DOCTYPE svg PUBLIC "-//W3C//DTD SVG 1.1//EN" "http://www.w3.org/Graphics/SVG/1.1/DTD/svg11.dtd">
<!-- Creator: CorelDRAW -->
<svg xmlns="http://www.w3.org/2000/svg" xml:space="preserve" width="20mm" height="20mm" version="1.1" style="shape-rendering:geometricPrecision; text-rendering:geometricPrecision; image-rendering:optimizeQuality; fill-rule:evenodd; clip-rule:evenodd"
viewBox="0 0 2000 2000"
 xmlns:xlink="http://www.w3.org/1999/xlink"
 xmlns:xodm="http://www.corel.com/coreldraw/odm/2003">
 <defs>
  <style type="text/css">
   <![CDATA[
    .fil0 {fill:#F7E8CF}
    .fil1 {fill:#EA580C;fill-rule:nonzero}
   ]]>
  </style>
 </defs>
 <g id="Слой_x0020_1">
  <metadata id="CorelCorpID_0Corel-Layer"/>
  <path class="fil0" d="M497.76 7.53l989.42 0c279.02,0 505.29,226.27 505.29,505.29l0 989.42c0,279.01 -226.27,505.28 -505.29,505.28l-989.42 0.01c-279.01,-0.01 -505.28,-226.28 -505.28,-505.3l-0.01 -989.41c0.01,-279.02 226.28,-505.29 505.3,-505.29z"/>
  <path class="fil1" d="M992.46 526.12c132.93,0 253.29,53.89 340.41,141.02 87.12,87.12 141.01,207.48 141.01,340.41 0,132.93 -53.89,253.29 -141.01,340.41 -87.12,87.12 -207.48,141.01 -340.41,141.01 -132.93,0 -253.29,-53.89 -340.41,-141.01 -87.12,-87.12 -141.01,-207.48 -141.01,-340.41 0,-132.93 53.89,-253.29 141.01,-340.41 87.12,-87.13 207.48,-141.02 340.41,-141.02zm-42.97 225.32c0,-23.73 19.24,-42.97 42.97,-42.97 23.73,0 42.97,19.24 42.97,42.97l0 230.3 111.57 58.38c20.94,10.94 29.06,36.8 18.12,57.74 -10.94,20.94 -36.8,29.06 -57.74,18.12l-131.22 -68.66c-15.65,-6.42 -26.67,-21.81 -26.67,-39.77l0 -256.11zm322.62 -23.54c-71.55,-71.56 -170.43,-115.82 -279.65,-115.82 -109.22,0 -208.1,44.26 -279.65,115.82 -71.55,71.55 -115.81,170.43 -115.81,279.65 0,109.22 44.26,208.1 115.81,279.65 71.55,71.55 170.43,115.81 279.65,115.81 109.22,0 208.1,-44.26 279.65,-115.81 71.55,-71.55 115.81,-170.43 115.81,-279.65 0,-109.22 -44.26,-208.1 -115.81,-279.65z"/>
 </g>
</svg>
