<?xml version="1.0" encoding="UTF-8"?>
<!DOCTYPE svg PUBLIC "-//W3C//DTD SVG 1.1//EN" "http://www.w3.org/Graphics/SVG/1.1/DTD/svg11.dtd">
<!-- Creator: CorelDRAW -->
<svg xmlns="http://www.w3.org/2000/svg" xml:space="preserve" width="20mm" height="20mm" version="1.1" style="shape-rendering:geometricPrecision; text-rendering:geometricPrecision; image-rendering:optimizeQuality; fill-rule:evenodd; clip-rule:evenodd"
viewBox="0 0 2000 2000"
 xmlns:xlink="http://www.w3.org/1999/xlink"
 xmlns:xodm="http://www.corel.com/coreldraw/odm/2003">
 <defs>
  <style type="text/css">
   <![CDATA[
    .str0 {stroke:#EA580C;stroke-width:85.9;stroke-miterlimit:22.9256}
    .fil1 {fill:none}
    .fil0 {fill:#F7E8CF}
   ]]>
  </style>
 </defs>
 <g id="Слой_x0020_1">
  <metadata id="CorelCorpID_0Corel-Layer"/>
  <g id="_2927411363280">
   <path class="fil0" d="M497.76 7.53l989.42 0c279.02,0 505.29,226.27 505.29,505.29l0 989.42c0,279.01 -226.27,505.28 -505.29,505.28l-989.42 0.01c-279.01,-0.01 -505.28,-226.28 -505.28,-505.3l-0.01 -989.41c0.01,-279.02 226.28,-505.29 505.3,-505.29l-0.01 0z"/>
   <path class="fil1 str0" d="M841.34 938.55c0,-143.77 166.56,-201.99 257.01,-111.16 101.56,101.99 17.95,258.77 -98.86,258.77 -49.57,0 -81.44,-12.08 -114.66,-45.25 -12.27,-12.25 -22.68,-25.06 -29.7,-42.35 -7.21,-17.8 -13.79,-34.23 -13.79,-60.01zm-202.1 0c0,60.15 17.93,118.6 43.91,170.48 21.58,43.07 54.06,88.35 83.82,125.31 4.32,5.36 7.49,8.44 11.36,13.25 4.56,5.65 8.17,8.88 12.31,14.05 8.55,10.69 16.8,16.92 25.08,27.64 10.01,12.97 38.37,37.2 53.27,52.17l55.93 47.75c10.34,8.08 19.36,15.07 29.41,23.32 42.65,34.96 76.19,0.14 104.69,-22.57l42 -35.32c20.38,-20.42 43.87,-38.5 66.77,-63.27l37.32 -41.76c30.53,-39.84 61.95,-73.58 86.7,-122.43 32.01,-63.14 53.89,-113.1 53.89,-190.39 0,-68.35 -21.42,-129.6 -55.5,-185.26 -3.62,-5.92 -4.95,-8.46 -9.01,-13.83 -53.84,-71.12 -117.9,-120.27 -210.32,-141.15 -130.32,-29.44 -263.44,16.17 -347.82,116.52 -52.96,62.99 -83.81,141.87 -83.81,225.49z"/>
  </g>
 </g>
</svg>
