<?xml version="1.0" encoding="UTF-8"?>
<!DOCTYPE svg PUBLIC "-//W3C//DTD SVG 1.1//EN" "http://www.w3.org/Graphics/SVG/1.1/DTD/svg11.dtd">
<!-- Creator: CorelDRAW -->
<svg xmlns="http://www.w3.org/2000/svg" xml:space="preserve" width="20mm" height="20mm" version="1.1" style="shape-rendering:geometricPrecision; text-rendering:geometricPrecision; image-rendering:optimizeQuality; fill-rule:evenodd; clip-rule:evenodd"
viewBox="0 0 2000 2000"
 xmlns:xlink="http://www.w3.org/1999/xlink"
 xmlns:xodm="http://www.corel.com/coreldraw/odm/2003">
 <defs>
  <style type="text/css">
   <![CDATA[
    .fil0 {fill:#EA580C}
    .fil1 {fill:#FEFEFE;fill-rule:nonzero}
   ]]>
  </style>
 </defs>
 <g id="Слой_x0020_1">
  <metadata id="CorelCorpID_0Corel-Layer"/>
  <rect class="fil0" x="2.47" y="7.53" width="2000" height="2000" rx="505.29" ry="505.29"/>
  <path class="fil1" d="M1132.55 1039.79l-172.34 -172.35 126.54 -126.54c32.05,-32.04 48.06,-74.33 48.07,-116.58l0.18 -0.17c0,-42.28 -16.1,-84.6 -48.25,-116.75 -32.17,-32.17 -74.48,-48.25 -116.76,-48.25 -34.07,0 -68.18,10.45 -96.98,31.35 -9.13,-20.86 -22.2,-40.39 -39.23,-57.41 -36.72,-36.72 -85.06,-55.09 -133.35,-55.09 -48.29,0 -96.63,18.37 -133.35,55.09l-20.62 20.62 -24.62 -24.62c-23.88,-23.88 -62.6,-23.88 -86.48,0 -23.87,23.88 -23.87,62.6 0,86.48l24.62 24.61 -31.07 31.08c-36.72,36.72 -55.09,85.06 -55.09,133.35 0,48.29 18.37,96.63 55.09,133.35 17.02,17.03 36.55,30.1 57.41,39.23 -20.9,28.8 -31.35,62.91 -31.35,96.98 0,42.28 16.08,84.59 48.24,116.75 32.16,32.16 74.48,48.26 116.76,48.26l5.71 -0.27c40.39,-1.35 80.4,-17.34 111.04,-47.98l137.02 -137.01 172.34 172.34 -137.01 137.02c-32.16,32.16 -48.25,74.47 -48.25,116.75 0,42.27 16.09,84.59 48.25,116.75 32.15,32.16 74.48,48.25 116.76,48.25l0.17 -0.17c34.02,-0.01 68.08,-10.4 96.79,-31.19 9.14,20.86 22.21,40.38 39.24,57.42 36.72,36.71 85.07,55.08 133.36,55.08 48.29,0 96.63,-18.36 133.35,-55.08l31.07 -31.07 24.62 24.61 14.78 14.78c23.88,23.88 62.6,23.88 86.47,0 23.88,-23.88 23.88,-62.6 0,-86.48l-14.77 -14.77 -24.62 -24.62 20.62 -20.62c36.72,-36.72 55.08,-85.06 55.08,-133.35 0,-48.29 -18.37,-96.64 -55.08,-133.36 -17.04,-17.03 -36.56,-30.1 -57.42,-39.24 19.66,-27.15 30.03,-59.08 31.09,-91.26l0.27 -5.7c0,-42.28 -16.09,-84.61 -48.24,-116.76 -32.17,-32.16 -74.49,-48.25 -116.76,-48.25 -42.28,0 -84.59,16.09 -116.75,48.25l-126.55 126.54zm347.88 212.9c12.84,12.83 19.27,29.85 19.27,46.88 0,17.02 -6.42,34.03 -19.27,46.88l-138.16 138.16c-12.85,12.85 -29.86,19.27 -46.88,19.27 -17.03,0 -34.05,-6.43 -46.88,-19.27 -12.85,-12.84 -19.27,-29.85 -19.27,-46.88 0,-17.02 6.42,-34.03 19.27,-46.87 23.87,-23.88 23.87,-62.6 0,-86.48 -23.88,-23.88 -62.6,-23.88 -86.48,0l-105.93 105.93c-8.35,8.35 -19.34,12.56 -30.27,12.6l0 -0.17c-11,0 -22.01,-4.15 -30.28,-12.43 -8.29,-8.29 -12.43,-19.29 -12.43,-30.28 0,-10.99 4.14,-22 12.42,-30.28l180.25 -180.25 169.78 -169.78c8.28,-8.28 19.29,-12.42 30.28,-12.42 10.99,0 21.99,4.14 30.27,12.42 8.29,8.28 12.44,19.29 12.44,30.29l0.06 2.83c-0.7,9.98 -4.86,19.81 -12.49,27.44l-105.93 105.93c-23.88,23.88 -23.88,62.6 0,86.48 23.88,23.87 62.6,23.87 86.48,0 12.84,-12.85 29.85,-19.27 46.87,-19.27 17.03,0 34.04,6.42 46.88,19.27zm-780 -752.39c17.03,0 34.03,6.42 46.88,19.26 12.84,12.84 19.26,29.86 19.26,46.88 0,17.03 -6.41,34.03 -19.26,46.88 -23.88,23.88 -23.88,62.6 0,86.48 23.88,23.87 62.6,23.87 86.47,0l105.94 -105.94c8.28,-8.28 19.28,-12.42 30.27,-12.42 10.99,0 21.99,4.14 30.28,12.42 8.28,8.29 12.43,19.3 12.43,30.29l0.17 0c-0.04,10.93 -4.24,21.93 -12.59,30.28l-169.78 169.77 -180.25 180.26c-7.63,7.63 -17.46,11.79 -27.45,12.49l-2.83 -0.07c-10.99,0 -22,-4.15 -30.28,-12.42 -8.29,-8.3 -12.43,-19.3 -12.43,-30.29 0,-10.99 4.14,-21.99 12.42,-30.27l105.94 -105.94c23.87,-23.87 23.87,-62.59 0,-86.47 -23.88,-23.88 -62.6,-23.88 -86.48,0 -12.85,12.85 -29.85,19.26 -46.88,19.26 -17.02,0 -34.04,-6.42 -46.88,-19.26 -12.84,-12.85 -19.26,-29.85 -19.26,-46.88 0,-17.03 6.42,-34.03 19.26,-46.88l138.17 -138.17c12.85,-12.84 29.85,-19.26 46.88,-19.26z"/>
 </g>
</svg>
