<?xml version="1.0" encoding="UTF-8"?>
<!DOCTYPE svg PUBLIC "-//W3C//DTD SVG 1.1//EN" "http://www.w3.org/Graphics/SVG/1.1/DTD/svg11.dtd">
<!-- Creator: CorelDRAW -->
<svg xmlns="http://www.w3.org/2000/svg" xml:space="preserve" width="20mm" height="20mm" version="1.1" style="shape-rendering:geometricPrecision; text-rendering:geometricPrecision; image-rendering:optimizeQuality; fill-rule:evenodd; clip-rule:evenodd"
viewBox="0 0 2000 2000"
 xmlns:xlink="http://www.w3.org/1999/xlink"
 xmlns:xodm="http://www.corel.com/coreldraw/odm/2003">
 <defs>
  <style type="text/css">
   <![CDATA[
    .str0 {stroke:#EA580C;stroke-width:85.9;stroke-miterlimit:22.9256}
    .fil1 {fill:none}
    .fil0 {fill:#F7E8CF}
   ]]>
  </style>
 </defs>
 <g id="Слой_x0020_1">
  <metadata id="CorelCorpID_0Corel-Layer"/>
  <g id="_2963679548560">
   <path class="fil0" d="M497.76 7.53l989.42 0c279.02,0 505.29,226.27 505.29,505.29l0 989.42c0,279.01 -226.27,505.28 -505.29,505.28l-989.42 0.01c-279.01,-0.01 -505.28,-226.28 -505.28,-505.3l-0.01 -989.41c0.01,-279.02 226.28,-505.29 505.3,-505.29l-0.01 0z"/>
   <path class="fil1 str0" d="M639.24 810.06c0,19.18 4.22,43.37 8.76,58.9 5.3,18.12 9.99,34.33 17.08,50.6 3.51,8.07 6.98,14.78 10.26,22.88l24.06 44.97c33.48,55.66 42.17,63.74 77.92,109.89l40.4 45.21c11.12,11.13 15.3,17.13 25.48,25.61 6.87,5.72 17.3,18.43 25.67,25.42 46.82,39.14 61.51,54.11 114.76,89.61 17.29,11.53 57.42,35.82 75.59,43.17 4.98,2.01 7.89,3.75 12.25,5.7 30.14,13.47 69.45,27.34 107.08,29.02l14.76 0c23.34,-1.11 45.45,-7.74 63.61,-23.05 14.42,-12.16 67.06,-64.44 72.5,-72.5 5.53,-8.2 10.37,-14.1 13.29,-25.37 3.18,-12.25 3.9,-20.53 1.79,-33.37 -3.85,-23.33 -16.31,-32.94 -30.35,-46.98 -16.65,-16.65 -83.71,-86.18 -97.95,-95.37 -28.27,-18.23 -67.92,-11.18 -88.36,16.09 -10,13.34 -8.88,29.59 -29.15,46.79 -53.44,45.36 -135.54,-24.38 -173.26,-62.1 -3.32,-3.32 -6.65,-6.19 -9.61,-9.73l-8.89 -10.43c-19.83,-24.41 -50.89,-70.51 -50.89,-103.77 0,-30.89 19.55,-49.14 44.66,-60.29 15.51,-6.88 20.47,-9.29 30.9,-21.57 15.77,-18.57 18.3,-49.8 6.39,-71.9 -5.21,-9.65 -11.43,-15.3 -18.78,-22.65l-82.16 -82.16c-22.49,-22.49 -33.8,-28.66 -66.63,-28.66 -15.12,0 -27.95,9.39 -37.09,16.77 -4.19,3.39 -5.61,4.49 -9.51,8.43 -12.25,12.36 -23.6,23.61 -35.9,35.91 -28.99,28.98 -48.68,47.2 -48.68,94.93z"/>
  </g>
 </g>
</svg>
