<?xml version="1.0" encoding="UTF-8"?>
<!DOCTYPE svg PUBLIC "-//W3C//DTD SVG 1.1//EN" "http://www.w3.org/Graphics/SVG/1.1/DTD/svg11.dtd">
<!-- Creator: CorelDRAW -->
<svg xmlns="http://www.w3.org/2000/svg" xml:space="preserve" width="20mm" height="20mm" version="1.1" style="shape-rendering:geometricPrecision; text-rendering:geometricPrecision; image-rendering:optimizeQuality; fill-rule:evenodd; clip-rule:evenodd"
viewBox="0 0 2000 2000"
 xmlns:xlink="http://www.w3.org/1999/xlink"
 xmlns:xodm="http://www.corel.com/coreldraw/odm/2003">
 <defs>
  <style type="text/css">
   <![CDATA[
    .fil0 {fill:#F7E8CF}
    .fil1 {fill:#EA580C;fill-rule:nonzero}
   ]]>
  </style>
 </defs>
 <g id="Слой_x0020_1">
  <metadata id="CorelCorpID_0Corel-Layer"/>
  <path class="fil0" d="M497.76 7.53l989.42 0c279.02,0 505.29,226.27 505.29,505.29l0 989.42c0,279.01 -226.27,505.28 -505.29,505.28l-989.42 0.01c-279.01,-0.01 -505.28,-226.28 -505.28,-505.3l-0.01 -989.41c0.01,-279.02 226.28,-505.29 505.3,-505.29z"/>
  <path class="fil1" d="M992.46 546.12c79.49,0 151.6,32.31 203.91,84.54l0.17 0.17c52.23,52.31 84.54,124.42 84.54,203.91 0,78.27 -31.33,149.38 -82.16,201.49l36.31 356.38c1.37,13.31 -0.93,26.08 -6.43,37.37 -5.52,11.31 -14.19,21.01 -25.47,28.11 -11.1,7 -23.59,10.57 -36.3,10.68 -12.71,0.1 -25.29,-3.27 -36.52,-10.14l-138.05 -84.38 -138.05 84.38c-11.23,6.87 -23.81,10.24 -36.52,10.14 -12.71,-0.11 -25.2,-3.68 -36.3,-10.68 -11.28,-7.1 -19.95,-16.8 -25.47,-28.11 -5.5,-11.29 -7.8,-24.06 -6.45,-37.37l36.33 -356.38c-50.83,-52.11 -82.16,-123.23 -82.16,-201.49 0,-79.49 32.31,-151.6 84.54,-203.91l0.17 -0.17c52.31,-52.23 124.42,-84.54 203.91,-84.54zm126.25 548.13c-38.17,18.65 -81.01,29.11 -126.25,29.11 -45.24,0 -88.08,-10.46 -126.25,-29.11l-27.9 273.76 113.9 -69.62c12.58,-7.69 26.38,-11.56 40.25,-11.56 13.85,0 27.67,3.87 40.25,11.56l113.9 69.62 -27.9 -273.76zm17.07 -403c-36.56,-36.56 -87.23,-59.19 -143.32,-59.19 -56.09,0 -106.76,22.63 -143.32,59.19l-0.17 0.17c-36.56,36.56 -59.19,87.23 -59.19,143.32 0,56.08 22.63,106.76 59.19,143.32l0.17 0.17c36.56,36.56 87.23,59.19 143.32,59.19 56.09,0 106.76,-22.63 143.32,-59.19l0.17 -0.17c36.56,-36.56 59.19,-87.24 59.19,-143.32 0,-56.09 -22.63,-106.76 -59.19,-143.32l-0.17 -0.17z"/>
 </g>
</svg>
