<?xml version="1.0" encoding="UTF-8"?>
<!DOCTYPE svg PUBLIC "-//W3C//DTD SVG 1.1//EN" "http://www.w3.org/Graphics/SVG/1.1/DTD/svg11.dtd">
<!-- Creator: CorelDRAW -->
<svg xmlns="http://www.w3.org/2000/svg" xml:space="preserve" width="20mm" height="20mm" version="1.1" style="shape-rendering:geometricPrecision; text-rendering:geometricPrecision; image-rendering:optimizeQuality; fill-rule:evenodd; clip-rule:evenodd"
viewBox="0 0 2000 2000"
 xmlns:xlink="http://www.w3.org/1999/xlink"
 xmlns:xodm="http://www.corel.com/coreldraw/odm/2003">
 <defs>
  <style type="text/css">
   <![CDATA[
    .fil1 {fill:#EA580C}
    .fil0 {fill:#F7E8CF}
   ]]>
  </style>
 </defs>
 <g id="Слой_x0020_1">
  <metadata id="CorelCorpID_0Corel-Layer"/>
  <path class="fil0" d="M497.76 7.53l989.42 0c279.02,0 505.29,226.27 505.29,505.29l0 989.42c0,279.01 -226.27,505.28 -505.29,505.28l-989.42 0.01c-279.01,-0.01 -505.28,-226.28 -505.28,-505.3l-0.01 -989.41c0.01,-279.02 226.28,-505.29 505.3,-505.29z"/>
  <path class="fil1" d="M671.58 802.45l0 146.49c0,46.76 9.76,94.06 26.42,138.88 18.03,48.46 44.19,94.17 74.9,133.31l44.88 49.32 4.34 3.59c2.76,2.25 5.27,4.29 9.08,8 16.68,16.24 53.48,41.56 89.8,61 28.37,15.19 55.86,26.6 71.67,26.6 10.82,0 29.65,-6.12 49.73,-14.3 30.52,-12.43 62.89,-29.37 76.62,-37.99 9.16,-5.71 17.99,-11.93 26.74,-18.52 8.51,-6.41 16.87,-13.2 25.36,-20.31l34.62 -34.38c2.36,-2.43 3.7,-4.14 5.08,-5.93 1.46,-1.87 2.95,-3.78 5.21,-6.31 28.15,-31.52 52.35,-75.21 69.66,-121.79 17.68,-47.61 28.08,-98.11 28.08,-141.64l0 -166.02c0,-6.33 -1.64,-12.25 -4.15,-17.44 -3.26,-6.76 -7.92,-12.39 -12.45,-16.41 -9.23,-8.17 -19.83,-10.32 -34.98,-13.37l-4.37 -0.88c-20.35,-4.17 -46.85,-11.79 -72.92,-20.64 -25.95,-8.8 -51.94,-19 -71.47,-28.37l-6.74 -3.16c-11.85,-5.64 -24.54,-11.68 -35.81,-18.43l-19.38 -11.76c-44.52,-27.27 -57.62,-35.28 -98.68,-10.49 -13.86,8.35 -26.54,15.81 -40.29,23.34 -13.33,7.3 -26.78,14.15 -42.06,21.23 -21.04,9.76 -47.28,20.06 -73.66,28.94 -25.03,8.41 -50.11,15.55 -70.97,19.72l-2.24 0.4c-16.1,3.24 -26.62,5.34 -36.19,14.21 -4.4,4.02 -8.85,9.55 -11.93,16.12 -2.36,5.04 -3.9,10.78 -3.9,16.99zm-90.42 51.44l0.18 -47.53c0,-24.18 6.11,-45.57 15.7,-63.76 11.33,-21.48 27.59,-38.43 44.46,-50.3 9.99,-7.02 18.46,-11.59 28.14,-15.21 9.43,-3.52 19.39,-5.95 32.77,-8.8 32.76,-6.99 59.97,-15.05 86.28,-25.05 26.52,-10.09 52.2,-22.18 81.68,-37.14 9.16,-4.65 18.57,-10.43 27.99,-16.2 26.49,-16.26 53.35,-32.76 86.5,-32.76 48.08,0 62.39,8.7 93.67,27.69l13.61 8.15c21.38,12.63 42.47,23.59 64.1,33.36 21.78,9.84 44.09,18.5 67.81,26.47 16.7,5.61 32.22,9.1 46.7,12.34 27.48,6.15 51.53,11.55 74.37,28.08 16.77,12.13 32.62,28.91 43.62,50.03 9.37,17.98 15.26,39.08 15.26,63.1l0 148.44c0,77.41 -16.98,150.17 -45.63,214.67 -31.19,70.18 -76.2,130.5 -128.2,176.33 -9.1,8.02 -20.44,16.75 -31.93,25.07 -11.15,8.08 -22.69,15.93 -32.43,22.4 -9.37,6.22 -22.01,13.39 -35.17,20.13 -13.44,6.93 -27.64,13.48 -39.48,18.18l-18.08 7.35c-33.26,13.59 -46.48,18.99 -90.17,18.99 -19.51,0 -46.05,-8.77 -72.51,-20.6 -37.21,-16.64 -75.12,-39.69 -91.69,-51.98l-5.73 -4.12c-3.76,-2.67 -7.45,-5.28 -11.67,-8.79l-2.53 -2.11c-37.68,-31.32 -67.42,-56.04 -97.95,-97.05 -14.24,-19.15 -25.58,-34.73 -35.92,-51.09 -10.47,-16.57 -19.93,-33.88 -30.27,-56.27 -54.88,-118.77 -54.33,-194.85 -53.48,-312.02z"/>
 </g>
</svg>
