<?xml version="1.0" encoding="UTF-8"?>
<!DOCTYPE svg PUBLIC "-//W3C//DTD SVG 1.1//EN" "http://www.w3.org/Graphics/SVG/1.1/DTD/svg11.dtd">
<!-- Creator: CorelDRAW -->
<svg xmlns="http://www.w3.org/2000/svg" xml:space="preserve" width="20mm" height="20mm" version="1.1" style="shape-rendering:geometricPrecision; text-rendering:geometricPrecision; image-rendering:optimizeQuality; fill-rule:evenodd; clip-rule:evenodd"
viewBox="0 0 2000 2000"
 xmlns:xlink="http://www.w3.org/1999/xlink"
 xmlns:xodm="http://www.corel.com/coreldraw/odm/2003">
 <defs>
  <style type="text/css">
   <![CDATA[
    .fil0 {fill:#F7E8CF}
    .fil1 {fill:#EA580C;fill-rule:nonzero}
   ]]>
  </style>
 </defs>
 <g id="Слой_x0020_1">
  <metadata id="CorelCorpID_0Corel-Layer"/>
  <path class="fil0" d="M497.76 7.53l989.42 0c279.02,0 505.29,226.27 505.29,505.29l0 989.42c0,279.01 -226.27,505.28 -505.29,505.28l-989.42 0.01c-279.01,-0.01 -505.28,-226.28 -505.28,-505.3l-0.01 -989.41c0.01,-279.02 226.28,-505.29 505.3,-505.29z"/>
  <path class="fil1" d="M567.25 619.11l508.29 0c23.73,0 42.97,19.24 42.97,42.97l0 130.84 147.27 0c15.13,0 28.43,7.82 36.09,19.64l149.23 186.54c6.3,7.89 9.36,17.32 9.35,26.69l0.22 0 0 241.04c0,23.73 -19.24,42.97 -42.97,42.97l-49.31 0c-6.49,18.29 -17,34.7 -30.46,48.17l-0.17 0.17c-23.37,23.36 -55.61,37.83 -91.14,37.83 -35.64,0 -67.95,-14.47 -91.31,-37.83l0 -0.17c-13.46,-13.47 -23.97,-29.88 -30.46,-48.17l-49.31 0 -162.01 0c-6.49,18.29 -17,34.7 -30.46,48.17l-0.17 0.17c-23.37,23.36 -55.61,37.83 -91.14,37.83 -35.53,0 -67.77,-14.47 -91.14,-37.83l-0.17 -0.17c-13.46,-13.47 -23.97,-29.88 -30.46,-48.17l-102.74 0c-23.73,0 -42.97,-19.24 -42.97,-42.97l0 -604.75c0,-23.73 19.24,-42.97 42.97,-42.97zm801.14 604.75l6.34 0 0 -183.34 -129.33 -161.66 -126.89 0 0 345 6.34 0c6.49,-18.3 17,-34.71 30.46,-48.18l0 -0.17c23.36,-23.36 55.67,-37.83 91.31,-37.83 35.53,0 67.77,14.47 91.14,37.83l0.17 0.17c13.46,13.47 23.97,29.89 30.46,48.18zm-121.77 86.17c12,0 22.83,-4.81 30.63,-12.57 7.76,-7.8 12.57,-18.63 12.57,-30.63 0,-12.01 -4.81,-22.84 -12.57,-30.64 -7.8,-7.76 -18.63,-12.57 -30.63,-12.57 -11.93,0 -22.74,4.84 -30.55,12.65l-0.08 -0.08c-7.76,7.8 -12.57,18.63 -12.57,30.64 0,12 4.81,22.83 12.57,30.63l0.08 -0.08c7.81,7.81 18.62,12.65 30.55,12.65zm-411.66 -43.2c0,-12.01 -4.81,-22.84 -12.57,-30.64 -7.8,-7.76 -18.63,-12.57 -30.63,-12.57 -12,0 -22.83,4.81 -30.63,12.57 -7.76,7.8 -12.57,18.63 -12.57,30.64 0,12 4.81,22.83 12.57,30.63 7.8,7.76 18.63,12.57 30.63,12.57 12,0 22.83,-4.81 30.63,-12.57 7.76,-7.8 12.57,-18.63 12.57,-30.63zm197.61 -561.78l-422.35 0 0 518.81 59.77 0 0.31 -0.86 0.16 -0.45 0.15 -0.4 0.32 -0.85 0.08 -0.22 0.24 -0.63 0.33 -0.84 0.34 -0.84 0.25 -0.62 0.09 -0.22 0.35 -0.84 0.17 -0.39 0.18 -0.44 0.36 -0.83 0.08 -0.17 0.29 -0.66 0.74 -1.64 0.26 -0.56 0.12 -0.26 0.39 -0.82 0.16 -0.33 0.23 -0.48 0.4 -0.81 0.06 -0.12 0.35 -0.68 0.36 -0.71 0.05 -0.1 0.41 -0.8 0.26 -0.49 0.16 -0.3 0.42 -0.79 0.15 -0.29 0.28 -0.5 0.44 -0.79 0.04 -0.07 0.4 -0.71 0.37 -0.65 0.08 -0.13 0.45 -0.78 0.25 -0.43 0.21 -0.34 0.46 -0.77 0.13 -0.23 0.34 -0.54 0.47 -0.76 0.01 -0.02 0.47 -0.74 0.36 -0.58 0.12 -0.17 0.49 -0.75 0.24 -0.38 0.25 -0.37 0.5 -0.75 0.11 -0.17 0.39 -0.57 0.49 -0.72 0.02 -0.02 0.51 -0.73 0.36 -0.52 0.16 -0.21 0.52 -0.72 0.23 -0.33 0.3 -0.4 0.53 -0.72 0.09 -0.12 0.45 -0.59 0.49 -0.65 0.05 -0.06 0.55 -0.71 0.35 -0.46 0.2 -0.24 0.55 -0.7 0.22 -0.27 0.35 -0.43 0.56 -0.69 0.07 -0.08 0.5 -0.61 0.49 -0.58 0.09 -0.1 0.58 -0.68 0.34 -0.4 0.24 -0.27 0.59 -0.68 0.19 -0.21 0.4 -0.45 0.6 -0.67 0.04 -0.04 0.56 -0.61 0.48 -0.53 0.13 -0.13 0.61 -0.65 0.33 -0.34 0.29 -0.31 0.62 -0.64 0.16 -0.17 0.46 -0.47 0.63 -0.63 0.17 -0.17c23.37,-23.36 55.61,-37.83 91.14,-37.83 35.53,0 67.77,14.47 91.14,37.83l0.17 0.17 0.63 0.63 0.46 0.47 0.16 0.17 0.62 0.64 0.29 0.31 0.33 0.34 0.61 0.65 0.13 0.13 0.48 0.53 0.56 0.61 0.04 0.04 0.6 0.67 0.4 0.45 0.19 0.21 0.59 0.68 0.24 0.27 0.34 0.4 0.58 0.68 0.09 0.1 0.49 0.58 0.5 0.61 0.07 0.08 0.56 0.69 0.35 0.43 0.22 0.27 0.55 0.7 0.2 0.24 0.35 0.46 0.55 0.71 0.05 0.06 0.49 0.65 0.45 0.59 0.09 0.12 0.53 0.72 0.3 0.4 0.23 0.33 0.52 0.72 0.16 0.21 0.36 0.52 0.51 0.73 0.02 0.02 0.49 0.72 0.39 0.57 0.11 0.17 0.5 0.75 0.25 0.37 0.24 0.38 0.49 0.75 0.12 0.17 0.36 0.58 0.47 0.74 0.01 0.02 0.47 0.76 0.34 0.54 0.13 0.23 0.46 0.77 0.21 0.34 0.25 0.43 0.45 0.78 0.08 0.13 0.37 0.65 0.4 0.71 0.04 0.07 0.44 0.79 0.28 0.5 0.15 0.29 0.42 0.79 0.16 0.3 0.26 0.49 0.41 0.8 0.05 0.1 0.36 0.71 0.35 0.68 0.06 0.12 0.4 0.81 0.23 0.48 0.16 0.33 0.39 0.82 0.12 0.26 0.26 0.56 0.74 1.64 0.29 0.66 0.08 0.17 0.36 0.83 0.19 0.44 0.16 0.39 0.35 0.84 0.09 0.22 0.25 0.62 0.34 0.84 0.33 0.84 0.24 0.63 0.08 0.22 0.32 0.85 0.15 0.4 0.16 0.45 0.31 0.86 119.04 0 0 -387.97 0 -130.84z"/>
 </g>
</svg>
