<svg xmlns="http://www.w3.org/2000/svg" viewBox="0 0 24 24" fill="none" data-testid="icon" class=""><path fill-rule="evenodd" clip-rule="evenodd" d="M3.06689 5.81649C3.06689 5.45199 3.36239 5.15649 3.72689 5.15649H6.50501L7.25794 6.75995H18.3348C18.8315 6.75995 19.1554 7.28146 18.9355 7.72666L16.3608 12.9393C16.0979 13.4716 15.5557 13.8085 14.9621 13.8085H9.64368L9.41867 14.2048C9.2746 14.4587 9.12897 14.7157 9.01597 14.9156C9.01025 14.9258 9.00461 14.9357 8.99907 14.9456H16.992C17.3565 14.9456 17.652 15.241 17.652 15.6056C17.652 15.9701 17.3565 16.2656 16.992 16.2656H8.64773C8.37503 16.2656 8.14943 16.1643 7.99889 16.0668C7.92064 16.0162 7.84915 15.9579 7.78806 15.8958C7.73742 15.8443 7.655 15.7511 7.60024 15.6234C7.55313 15.5134 7.53879 15.4078 7.53294 15.35C7.52585 15.2799 7.52481 15.2086 7.52811 15.1413C7.53356 15.03 7.55495 14.8347 7.64878 14.6554C7.68335 14.5893 7.98833 14.0509 8.27056 13.5535L8.67103 12.8481L6.2413 7.70048L5.66656 6.47649H3.72689C3.36239 6.47649 3.06689 6.181 3.06689 5.81649ZM9.96094 12.4885H14.9621C15.0534 12.4885 15.1368 12.4366 15.1773 12.3548L17.2888 8.07995H7.88007L9.96094 12.4885Z" fill="currentColor"/><path d="M10.8802 19.0746C10.8802 19.4169 10.6027 19.6944 10.2603 19.6944C9.918 19.6944 9.64047 19.4169 9.64047 19.0746C9.64047 18.7322 9.918 18.4547 10.2603 18.4547C10.6027 18.4547 10.8802 18.7322 10.8802 19.0746Z" fill="currentColor"/><path fill-rule="evenodd" clip-rule="evenodd" d="M10.2603 19.1147C10.2825 19.1147 10.3005 19.0967 10.3005 19.0746C10.3005 19.0524 10.2825 19.0344 10.2603 19.0344C10.2382 19.0344 10.2202 19.0524 10.2202 19.0746C10.2202 19.0967 10.2382 19.1147 10.2603 19.1147ZM8.98047 19.0746C8.98047 18.3677 9.55349 17.7947 10.2603 17.7947C10.9672 17.7947 11.5402 18.3677 11.5402 19.0746C11.5402 19.7814 10.9672 20.3544 10.2603 20.3544C9.55349 20.3544 8.98047 19.7814 8.98047 19.0746Z" fill="currentColor"/><path d="M15.7772 19.0746C15.7772 19.4169 15.4997 19.6944 15.1573 19.6944C14.815 19.6944 14.5374 19.4169 14.5374 19.0746C14.5374 18.7322 14.815 18.4547 15.1573 18.4547C15.4997 18.4547 15.7772 18.7322 15.7772 19.0746Z" fill="currentColor"/><path fill-rule="evenodd" clip-rule="evenodd" d="M15.1573 19.1147C15.1795 19.1147 15.1974 19.0967 15.1974 19.0746C15.1974 19.0524 15.1795 19.0344 15.1573 19.0344C15.1352 19.0344 15.1172 19.0524 15.1172 19.0746C15.1172 19.0967 15.1352 19.1147 15.1573 19.1147ZM13.8774 19.0746C13.8774 18.3677 14.4505 17.7947 15.1573 17.7947C15.8642 17.7947 16.4372 18.3677 16.4372 19.0746C16.4372 19.7814 15.8642 20.3544 15.1573 20.3544C14.4505 20.3544 13.8774 19.7814 13.8774 19.0746Z" fill="currentColor"/></svg>