<svg xmlns="http://www.w3.org/2000/svg" viewBox="0 0 24 24" fill="none" data-testid="icon" class=""><path fill-rule="evenodd" clip-rule="evenodd" d="M16.4406 15.3108C18.392 12.8035 18.2153 9.17663 15.9107 6.87197C13.4147 4.37601 9.36794 4.37601 6.87197 6.87197C4.37601 9.36794 4.37601 13.4147 6.87197 15.9107C9.17662 18.2153 12.8034 18.392 15.3108 16.4406L17.3058 18.5368C17.6152 18.8619 18.1317 18.8683 18.449 18.551C18.7555 18.2445 18.7616 17.7495 18.4628 17.4356L16.4406 15.3108ZM14.7857 14.776C16.6528 12.9036 16.6512 9.87216 14.7808 8.00181C12.9089 6.12984 9.87379 6.12984 8.00181 8.00181C6.12984 9.87379 6.12984 12.9089 8.00181 14.7808C9.87216 16.6512 12.9036 16.6528 14.776 14.7857C14.7776 14.7841 14.7792 14.7825 14.7808 14.7808C14.7825 14.7792 14.7841 14.7776 14.7857 14.776Z" fill="currentColor"/></svg>